<?xml version="1.0" encoding="utf-8"?>

<!-- Uploaded to: SVG Repo, www.svgrepo.com, Generator: SVG Repo Mixer Tools -->
<svg width="25px" height="25px" viewBox="0 0 64 64" xmlns="http://www.w3.org/2000/svg">

<title>book</title>

<g id="book">

<circle cx="30.5" cy="33.5" r="21.5" style="fill:#e5efef"/>

<path d="M46,58V49h6V46H17.5a7.5,7.5,0,0,0,0,15H52V58Z" style="fill:#6b4f5b;stroke:#4c241d;stroke-linecap:round;stroke-linejoin:round;stroke-width:2px"/>

<path d="M52,58H17.5A4.5,4.5,0,0,1,13,53.5h0A4.5,4.5,0,0,1,17.5,49H52C48.866,51.547,49.126,55.223,52,58Z" style="fill:#ffffff;stroke:#4c241d;stroke-linecap:round;stroke-linejoin:round;stroke-width:2px"/>

<path d="M10.846,20.213A5.21,5.21,0,0,1,13.08,15s3.723,6.7,6.7,9.68c0,0-5.957,5.213-8.191-.744Z" style="fill:#edebdc;stroke:#4c241d;stroke-linecap:round;stroke-linejoin:round;stroke-width:2px"/>

<path d="M29.606,23.072s-2.8,4.735-4.937,8.7c-3.555,6.606-9.355,7.055-16.057,1.1A12.612,12.612,0,0,1,4.54,26.022S7.123,28.4,10.1,28.4a8.863,8.863,0,0,1-1.489-11.17s3.9,5.579,7.852,7.562a4.757,4.757,0,0,0,3.129.2C21.519,24.386,24.365,18.729,29.606,23.072Z" style="fill:#ffffff;stroke:#4c241d;stroke-linecap:round;stroke-linejoin:round;stroke-width:2px"/>

<circle cx="29" cy="38" r="2" style="fill:none;stroke:#4c241d;stroke-linecap:round;stroke-linejoin:round;stroke-width:2px"/>

<circle cx="48" cy="42" r="1" style="fill:#4c241d"/>

<line x1="54" y1="4.463" x2="54" y2="5.878" style="fill:none;stroke:#4c241d;stroke-linecap:round;stroke-linejoin:round;stroke-width:2px"/>

<line x1="54" y1="10.122" x2="54" y2="11.537" style="fill:none;stroke:#4c241d;stroke-linecap:round;stroke-linejoin:round;stroke-width:2px"/>

<line x1="50.463" y1="8" x2="51.878" y2="8" style="fill:none;stroke:#4c241d;stroke-linecap:round;stroke-linejoin:round;stroke-width:2px"/>

<line x1="56.122" y1="8" x2="57.537" y2="8" style="fill:none;stroke:#4c241d;stroke-linecap:round;stroke-linejoin:round;stroke-width:2px"/>

<line x1="46" y1="52" x2="30" y2="52" style="fill:none;stroke:#4c241d;stroke-linecap:round;stroke-linejoin:round;stroke-width:2px"/>

<line x1="37" y1="55" x2="46" y2="55" style="fill:none;stroke:#4c241d;stroke-linecap:round;stroke-linejoin:round;stroke-width:2px"/>

<line x1="17" y1="52" x2="27" y2="52" style="fill:none;stroke:#4c241d;stroke-linecap:round;stroke-linejoin:round;stroke-width:2px"/>

<line x1="25" y1="55" x2="31" y2="55" style="fill:none;stroke:#4c241d;stroke-linecap:round;stroke-linejoin:round;stroke-width:2px"/>

<line x1="32" y1="14" x2="32" y2="9" style="fill:none;stroke:#4c241d;stroke-linecap:round;stroke-linejoin:round;stroke-width:2px"/>

<line x1="28" y1="14" x2="26" y2="12" style="fill:none;stroke:#4c241d;stroke-linecap:round;stroke-linejoin:round;stroke-width:2px"/>

<line x1="36" y1="14" x2="38.5" y2="11.5" style="fill:none;stroke:#4c241d;stroke-linecap:round;stroke-linejoin:round;stroke-width:2px"/>

<path d="M52.3,20.213A5.21,5.21,0,0,0,50.066,15s-3.723,6.7-6.7,9.68c0,0,5.958,5.213,8.191-.744Z" style="fill:#edebdc;stroke:#4c241d;stroke-linecap:round;stroke-linejoin:round;stroke-width:2px"/>

<path d="M33.54,23.072s2.8,4.735,4.937,8.7c3.555,6.606,9.355,7.055,16.057,1.1a12.612,12.612,0,0,0,4.072-6.849S56.023,28.4,53.045,28.4a8.863,8.863,0,0,0,1.489-11.17s-3.905,5.579-7.852,7.562a4.757,4.757,0,0,1-3.129.2C41.627,24.386,38.781,18.729,33.54,23.072Z" style="fill:#ffffff;stroke:#4c241d;stroke-linecap:round;stroke-linejoin:round;stroke-width:2px"/>

</g>

</svg>