<?xml version="1.0" encoding="iso-8859-1"?>
<!-- Uploaded to: SVG Repo, www.svgrepo.com, Generator: SVG Repo Mixer Tools -->
<svg width="25px" height="25px" version="1.1" id="Layer_1" xmlns="http://www.w3.org/2000/svg" xmlns:xlink="http://www.w3.org/1999/xlink" 
	 viewBox="0 0 512 512" xml:space="preserve">
<g transform="translate(1 1)">
	<path style="fill:#FFE100;" d="M437.613,502.467H89.453c-7.68,0-13.653-5.973-13.653-13.653V21.187
		c0-7.68,5.973-13.653,13.653-13.653h349.013c6.827,0,12.8,5.973,12.8,13.653v468.48
		C451.267,496.493,445.293,502.467,437.613,502.467"/>
	<path style="fill:#FFA800;" d="M451.267,488.813V21.187c0-7.68-5.973-13.653-13.653-13.653h-17.067
		c7.68,0,13.653,5.973,13.653,13.653v468.48c0,7.68-5.973,13.653-13.653,13.653h17.067
		C445.293,502.467,451.267,496.493,451.267,488.813"/>
	<g>
		<path style="fill:#FFE100;" d="M127,502.467H89.453c-7.68,0-13.653-5.973-13.653-13.653V21.187c0-7.68,5.973-13.653,13.653-13.653
			H127V502.467z"/>
		<path style="fill:#FFE100;" d="M408.6,280.6V109.933c-33.28,0-59.733-26.453-59.733-59.733H229.4
			c0,33.28-26.453,59.733-59.733,59.733V280.6v119.467c33.28,0,59.733,26.453,59.733,59.733h119.467
			c0-33.28,26.453-59.733,59.733-59.733V280.6z"/>
	</g>
	<path style="fill:#00DA6C;" d="M408.6,255c0,65.707-53.76,119.467-119.467,119.467S169.667,320.707,169.667,255
		s53.76-119.467,119.467-119.467S408.6,189.293,408.6,255"/>
	<path style="fill:#00AD55;" d="M289.133,135.533c-4.267,0-8.533,0-12.8,0.853C336.067,142.36,383,193.56,383,255
		s-46.933,112.64-106.667,118.613c4.267,0.853,8.533,0.853,12.8,0.853c65.707,0,119.467-53.76,119.467-119.467
		S354.84,135.533,289.133,135.533"/>
	<path style="fill:#FFFFFF;" d="M89.453,7.533h25.6c-7.68,0-13.653,5.973-13.653,13.653v468.48c0,6.827,5.973,12.8,13.653,12.8
		h-25.6c-7.68,0-13.653-5.973-13.653-13.653V21.187C75.8,13.507,81.773,7.533,89.453,7.533"/>
	<g>
		<polygon style="fill:#FFE100;" points="263.533,135.533 314.733,135.533 314.733,50.2 263.533,50.2 		"/>
		<polygon style="fill:#FFE100;" points="263.533,459.8 314.733,459.8 314.733,374.467 263.533,374.467 		"/>
	</g>
	<path style="fill:#FDCC00;" d="M237.933,280.6c0,28.16,23.04,51.2,51.2,51.2c28.16,0,51.2-23.04,51.2-51.2
		c0-21.333-25.6-34.133-25.6-34.133c-39.253-23.04,0-68.267,0-68.267S237.933,208.067,237.933,280.6"/>
	<path d="M437.613,511H89.453c-12.8,0-22.187-9.387-22.187-22.187V21.187C67.267,8.387,76.653-1,89.453-1h349.013
		C450.413-1,459.8,8.387,459.8,21.187v468.48C459.8,501.613,450.413,511,437.613,511z M89.453,16.067c-3.413,0-5.12,1.707-5.12,5.12
		v468.48c0,2.56,1.707,4.267,5.12,4.267h349.013c2.56,0,5.12-1.707,5.12-5.12V21.187c-0.853-3.413-2.56-5.12-5.973-5.12H89.453z"/>
	<path d="M127,511H89.453c-12.8,0-22.187-9.387-22.187-22.187V21.187C67.267,8.387,76.653-1,89.453-1H127
		c5.12,0,8.533,3.413,8.533,8.533v494.933C135.533,507.587,132.12,511,127,511z M89.453,16.067c-3.413,0-5.12,1.707-5.12,5.12
		v468.48c0,2.56,1.707,4.267,5.12,4.267h29.013V16.067H89.453z"/>
	<path d="M92.867,67.267H58.733c-5.12,0-8.533-3.413-8.533-8.533s3.413-8.533,8.533-8.533h34.133c5.12,0,8.533,3.413,8.533,8.533
		S97.987,67.267,92.867,67.267z"/>
	<path d="M92.867,459.8H58.733c-5.12,0-8.533-3.413-8.533-8.533s3.413-8.533,8.533-8.533h34.133c5.12,0,8.533,3.413,8.533,8.533
		S97.987,459.8,92.867,459.8z"/>
	<path d="M348.867,468.333H229.4c-5.12,0-8.533-3.413-8.533-8.533c0-28.16-23.04-51.2-51.2-51.2c-5.12,0-8.533-3.413-8.533-8.533
		V109.933c0-5.12,3.413-8.533,8.533-8.533c28.16,0,51.2-23.04,51.2-51.2c0-5.12,3.413-8.533,8.533-8.533h119.467
		c5.12,0,8.533,3.413,8.533,8.533c0,28.16,23.04,51.2,51.2,51.2c5.12,0,8.533,3.413,8.533,8.533v290.133
		c0,5.12-3.413,8.533-8.533,8.533c-28.16,0-51.2,23.04-51.2,51.2C357.4,464.92,353.987,468.333,348.867,468.333z M237.08,451.267
		h103.253c4.267-30.72,28.16-55.467,58.88-58.88V117.613c-30.72-4.267-55.467-28.16-58.88-58.88H237.08
		c-4.267,30.72-28.16,55.467-58.88,58.88v273.92C208.92,395.8,233.667,420.547,237.08,451.267z"/>
	<path d="M289.133,383c-70.827,0-128-57.173-128-128s57.173-128,128-128s128,57.173,128,128S359.96,383,289.133,383z
		 M289.133,144.067C227.693,144.067,178.2,193.56,178.2,255s49.493,110.933,110.933,110.933S400.067,316.44,400.067,255
		S350.573,144.067,289.133,144.067z"/>
	<path d="M314.733,144.067h-51.2c-5.12,0-8.533-3.413-8.533-8.533V50.2c0-5.12,3.413-8.533,8.533-8.533h51.2
		c5.12,0,8.533,3.413,8.533,8.533v85.333C323.267,140.653,319.853,144.067,314.733,144.067z M272.067,127H306.2V58.733h-34.133V127z
		"/>
	<path d="M314.733,468.333h-51.2c-5.12,0-8.533-3.413-8.533-8.533v-85.333c0-5.12,3.413-8.533,8.533-8.533h51.2
		c5.12,0,8.533,3.413,8.533,8.533V459.8C323.267,464.92,319.853,468.333,314.733,468.333z M272.067,451.267H306.2V383h-34.133
		V451.267z"/>
	<path d="M289.133,340.333c-33.28,0-59.733-26.453-59.733-59.733c0-77.653,78.507-109.227,81.92-110.08
		c3.413-1.707,7.68,0,10.24,3.413s1.707,7.68-0.853,10.24c-5.12,5.973-17.92,23.893-15.36,38.4c0.853,6.827,5.12,11.947,12.8,17.067
		c0.853,0,29.867,14.507,29.867,41.813C348.867,313.88,322.413,340.333,289.133,340.333z M291.693,201.24
		c-20.48,14.507-45.227,40.107-45.227,79.36c0,23.893,18.773,42.667,42.667,42.667c23.893,0,42.667-18.773,42.667-42.667
		c0-16.213-20.48-26.453-20.48-26.453c-12.8-7.68-19.627-17.067-22.187-29.013C287.427,216.6,289.133,208.067,291.693,201.24z"/>
</g>
</svg>