<?xml version="1.0" encoding="iso-8859-1"?>
<!-- Uploaded to: SVG Repo, www.svgrepo.com, Generator: SVG Repo Mixer Tools -->
<svg width="25px" height="25px" version="1.1" id="Layer_1" xmlns="http://www.w3.org/2000/svg" xmlns:xlink="http://www.w3.org/1999/xlink" 
	 viewBox="0 0 512 512" xml:space="preserve">
<path style="fill:#65B4BB;" d="M462.178,0v379.833l-350.217,45.199l-17.87,2.299l-44.27,5.718V53.205
	c0-14.689,5.957-27.984,15.583-37.622c7.636-7.625,17.572-12.95,28.687-14.832C96.998,0.262,99.977,0,103.027,0H462.178z"/>
<path style="fill:#57A3A7;" d="M462.178,379.833v106.422H103.027c-14.689,0-27.984-5.957-37.622-15.583
	c-9.626-9.638-15.583-22.945-15.583-37.634c0-20.86,12.021-38.933,29.509-47.641c7.136-3.562,15.178-5.564,23.696-5.564H462.178z"/>
<path style="fill:#E4E4E4;" d="M422.281,379.833v69.681H80.034c-0.751-2.311-1.346-4.932-1.787-7.803
	c-0.584-3.657-0.929-7.708-1.12-11.913c-0.131-3.109-0.179-6.314-0.143-9.531c0.024-4.015,0.167-8.042,0.381-11.913
	c0.167-3.324,0.393-6.54,0.643-9.531c0.369-4.61,0.786-8.721,1.144-11.913c0.06-0.524,0.119-1.036,0.179-1.513
	c7.136-3.562,15.178-5.564,23.696-5.564H422.281z"/>
<path style="fill:#57A3A7;" d="M111.962,0v379.833h-8.935c-3.038,0-6.028,0.25-8.935,0.751V0.751C96.998,0.262,99.977,0,103.027,0
	H111.962z"/>
<rect x="156.506" y="49.762" style="fill:#82DCC7;" width="247.798" height="274.007"/>
<g>
	<path style="fill:#D6D6D6;" d="M422.281,408.354v11.913H76.984c0.024-4.015,0.167-8.042,0.381-11.913H422.281z"/>
	<path style="fill:#D6D6D6;" d="M422.281,429.798v11.913H78.247c-0.584-3.657-0.929-7.708-1.12-11.913H422.281z"/>
	<path style="fill:#D6D6D6;" d="M422.281,386.91v11.913H78.009c0.369-4.61,0.786-8.721,1.144-11.913H422.281z"/>
</g>
<polygon style="fill:#65B4BB;" points="336.613,144.966 336.613,121.14 292.325,121.14 292.325,90.446 268.498,90.446 
	268.498,121.14 224.208,121.14 224.208,198.679 312.786,198.679 312.786,228.565 224.208,228.565 224.208,252.391 268.498,252.391 
	268.498,283.085 292.325,283.085 292.325,252.391 336.613,252.391 336.613,174.852 248.035,174.852 248.035,144.966 "/>
<polygon style="fill:#F64B4A;" points="200.896,512 162.773,488.173 124.651,512 124.651,408.354 200.896,408.354 "/>
</svg>