<?xml version="1.0" encoding="iso-8859-1"?>
<!-- Uploaded to: SVG Repo, www.svgrepo.com, Generator: SVG Repo Mixer Tools -->
<svg width="25px" height="25px" version="1.1" id="Layer_1" xmlns="http://www.w3.org/2000/svg" xmlns:xlink="http://www.w3.org/1999/xlink" 
	 viewBox="0 0 512.001 512.001" xml:space="preserve">
<path style="fill:#D8CCBC;" d="M35.721,17.861C15.993,17.861,0,33.854,0,53.582s15.993,35.721,35.721,35.721h59.535V17.861H35.721z"
	/>
<path style="fill:#EBE4DD;" d="M35.721,17.861c19.727,0,35.721,15.993,35.721,35.721v404.837c0,19.727,15.993,35.721,35.721,35.721
	h345.302c-19.727,0-35.721-15.993-35.721-35.721L415.626,44.68c-3.956-15.42-17.947-26.819-34.603-26.819H35.721"/>
<path style="fill:#D8CCBC;" d="M416.744,458.419L415.626,44.68c-3.956-15.42-17.947-26.819-34.603-26.819H250.047V494.14h202.419
	C432.738,494.14,416.744,478.146,416.744,458.419z"/>
<path style="fill:#B4D8F1;" d="M484.101,207.278c37.2-37.2,37.2-97.513,0-134.712c-37.2-37.2-97.512-37.2-134.712,0l-176.81,176.81
	v134.712H307.29L484.101,207.278z"/>
<path style="fill:#98C8ED;" d="M484.101,75.456c-0.987-0.986-1.997-1.933-3.015-2.866L172.579,381.096v5.881H307.29l176.81-176.809
	C521.299,172.968,521.299,112.655,484.101,75.456z"/>
<polygon style="fill:#88888F;" points="429.374,152.551 404.116,127.293 109.433,421.976 134.692,447.233 255.751,326.174 
	315.711,326.173 315.71,290.452 291.473,290.452 331.528,250.397 391.486,250.397 391.486,214.676 367.249,214.676 "/>
</svg>