<?xml version="1.0" encoding="iso-8859-1"?>
<!-- Uploaded to: SVG Repo, www.svgrepo.com, Generator: SVG Repo Mixer Tools -->
<svg width="25px" height="25px" version="1.1" id="Layer_1" xmlns="http://www.w3.org/2000/svg" xmlns:xlink="http://www.w3.org/1999/xlink" 
	 viewBox="0 0 512 512" xml:space="preserve">
<polygon style="fill:#FF675C;" points="147.876,7.95 80.033,7.95 80.033,423.487 80.033,504.05 431.967,504.05 431.967,423.487 
	431.967,7.95 "/>
<rect x="147.876" y="7.95" style="fill:#9FD25A;" width="284.091" height="415.536"/>
<rect x="80.033" y="423.487" style="fill:#E0DDDF;" width="351.934" height="80.563"/>
<polygon style="fill:#C1BCBF;" points="80.033,423.134 80.033,423.487 80.033,504.05 96.641,504.05 96.641,423.134 "/>
<g>
	<rect x="80.033" y="7.95" style="fill:#FF675C;" width="67.843" height="415.536"/>
</g>
<rect x="80.033" y="7.95" style="fill:#DB3D5A;" width="16.608" height="415.186"/>
<polygon style="fill:#FAEC8E;" points="321.723,423.487 321.723,482.849 347.164,461.648 347.694,462.09 347.694,462.09 
	372.605,482.849 372.605,423.487 "/>
<rect x="321.723" y="423.487" style="fill:#FBC96C;" width="50.882" height="20.141"/>
<g>
	<path style="fill:#FFFFFF;" d="M377.95,255.516c3.082-3.128,3.043-8.161-0.084-11.243c-3.126-3.08-8.159-3.046-11.243,0.084
		l-19.899,20.197l-33.566-19.383c-2.459-1.42-5.491-1.419-7.95,0l-38.342,22.134c-2.459,1.42-3.975,4.045-3.975,6.886v44.278
		c0,2.841,1.516,5.466,3.975,6.886l33.868,19.551v27.699c0,4.391,3.559,7.95,7.95,7.95s7.95-3.56,7.95-7.95v-27.125l27.713-16.002
		l22.77,19.487c1.499,1.283,3.337,1.91,5.166,1.91c2.243,0,4.472-0.943,6.044-2.782c2.855-3.336,2.465-8.354-0.87-11.21
		l-21.993-18.821v-39.722L377.95,255.516z M339.563,313.879l-30.382,17.543l-30.39-17.544v-35.097l30.39-17.545l30.382,17.544
		L339.563,313.879L339.563,313.879z"/>
	<path style="fill:#FFFFFF;" d="M292.391,278.028c-4.392,0-7.95,3.56-7.95,7.95v21.201c0,4.391,3.559,7.95,7.95,7.95
		s7.95-3.56,7.95-7.95v-21.201C300.342,281.587,296.783,278.028,292.391,278.028z"/>
	<path style="fill:#FFFFFF;" d="M295.434,233.866v-44.267c0-2.841-1.516-5.466-3.975-6.886l-38.342-22.134
		c-2.459-1.419-5.491-1.419-7.95,0l-31.192,18.006l-22.768-19.492c-3.336-2.856-8.355-2.466-11.21,0.869
		c-2.855,3.335-2.467,8.354,0.868,11.21l21.983,18.821v39.724l-22.477,22.824c-3.08,3.128-3.042,8.162,0.086,11.243
		c1.549,1.524,3.564,2.285,5.579,2.285c2.054,0,4.109-0.792,5.665-2.371l19.89-20.196l33.576,19.382
		c1.23,0.709,2.602,1.064,3.975,1.064c1.373,0,2.745-0.355,3.975-1.064l38.342-22.134
		C293.919,239.332,295.434,236.707,295.434,233.866z M279.533,229.276l-30.391,17.544l-30.391-17.544v-35.087l30.391-17.544
		l30.391,17.544V229.276z"/>
	<path style="fill:#FFFFFF;" d="M265.922,230.029c4.392,0,7.95-3.56,7.95-7.95v-21.201c0-4.391-3.559-7.95-7.95-7.95
		s-7.95,3.56-7.95,7.95v21.201C257.972,226.469,261.531,230.029,265.922,230.029z"/>
	<path style="fill:#FFFFFF;" d="M266.865,155.651l38.342,22.134c1.23,0.709,2.602,1.064,3.975,1.064
		c1.373,0,2.746-0.355,3.975-1.065l33.566-19.383l19.899,20.197c1.556,1.579,3.609,2.37,5.664,2.37c2.015,0,4.031-0.761,5.58-2.287
		c3.127-3.082,3.165-8.116,0.084-11.243l-22.487-22.824v-39.721l21.993-18.821c3.335-2.855,3.726-7.874,0.87-11.21
		c-2.854-3.335-7.872-3.727-11.21-0.871l-22.77,19.487l-27.713-16.001V50.352c0-4.391-3.559-7.95-7.95-7.95s-7.95,3.56-7.95,7.95
		v27.699l-33.868,19.551c-2.459,1.42-3.975,4.045-3.975,6.886v44.278C262.89,151.607,264.406,154.232,266.865,155.651z
		 M278.791,109.078l30.39-17.544l30.382,17.543v35.099l-30.382,17.544l-30.39-17.545V109.078z"/>
	<path style="fill:#FFFFFF;" d="M292.391,107.827c-4.392,0-7.95,3.56-7.95,7.95v21.201c0,4.391,3.559,7.95,7.95,7.95
		s7.95-3.56,7.95-7.95v-21.201C300.342,111.387,296.783,107.827,292.391,107.827z"/>
</g>
<g>
	<path style="fill:#A19AA0;" d="M292.041,461.118H118.195c-4.392,0-7.95-3.56-7.95-7.95c0-4.391,3.559-7.95,7.95-7.95h173.847
		c4.392,0,7.95,3.56,7.95,7.95C299.992,457.558,296.433,461.118,292.041,461.118z"/>
	<path style="fill:#A19AA0;" d="M292.041,486.559h-93.284c-4.392,0-7.95-3.56-7.95-7.95s3.559-7.95,7.95-7.95h93.284
		c4.392,0,7.95,3.56,7.95,7.95S296.433,486.559,292.041,486.559z"/>
	<path style="fill:#A19AA0;" d="M164.836,486.559h-46.642c-4.392,0-7.95-3.56-7.95-7.95s3.559-7.95,7.95-7.95h46.642
		c4.392,0,7.95,3.56,7.95,7.95S169.228,486.559,164.836,486.559z"/>
</g>
<path d="M431.967,0H80.033c-4.392,0-7.95,3.56-7.95,7.95V504.05c0,4.391,3.559,7.95,7.95,7.95h351.934c4.392,0,7.95-3.56,7.95-7.95
	V7.95C439.917,3.56,436.359,0,431.967,0z M87.983,15.901h51.942V329.65c0,4.391,3.559,7.95,7.95,7.95s7.95-3.56,7.95-7.95V15.901
	h268.19v399.636h-268.19v-48.232c0-4.391-3.559-7.95-7.95-7.95s-7.95,3.56-7.95,7.95v48.232H87.983V15.901z M329.673,431.437h34.981
	v34.438l-12.4-10.334c-2.948-2.456-7.232-2.456-10.181,0l-12.4,10.334V431.437z M87.983,496.099v-64.663h225.789v51.412
	c0,6.6,7.959,10.34,13.041,6.108l20.351-16.96l20.351,16.96c5.086,4.237,13.041,0.479,13.041-6.108v-51.412h43.462v64.663H87.983z"
	/>
</svg>