<?xml version="1.0" encoding="iso-8859-1"?>
<!-- Uploaded to: SVG Repo, www.svgrepo.com, Generator: SVG Repo Mixer Tools -->
<svg width="25px" height="25px" version="1.1" id="Layer_1" xmlns="http://www.w3.org/2000/svg" xmlns:xlink="http://www.w3.org/1999/xlink" 
	 viewBox="0 0 512 512" xml:space="preserve">
<g transform="translate(1 1)">
	<g>
		<path style="fill:#FFE100;" d="M158.573,91.16l5.12-23.893h31.573V7.533h-51.2c-18.773,0-34.133,15.36-34.133,34.133v78.507
			C130.413,127,154.307,114.2,158.573,91.16"/>
		<path style="fill:#FFE100;" d="M163.693,374.467l-3.413-18.773c-4.267-23.893-29.013-35.84-50.347-29.013v141.653
			c0-18.773,15.36-34.133,34.133-34.133h51.2v-59.733H163.693z"/>
	</g>
	<path style="fill:#FDCC00;" d="M144.067,434.2c-18.773,0-34.133,15.36-34.133,34.133c0,18.773,15.36,34.133,34.133,34.133H485.4
		V434.2H144.067z"/>
	<g>
		<path style="fill:#FFE100;" d="M229.4,220.867c0,28.16-23.04,51.2-51.2,51.2s-51.2-23.04-51.2-51.2s23.04-51.2,51.2-51.2
			S229.4,192.707,229.4,220.867"/>
		<path style="fill:#FFE100;" d="M144.067,7.533c-18.773,0-34.133,15.36-34.133,34.133v78.507
			c20.48,6.827,44.373-5.973,48.64-29.013l5.12-23.893h35.84l3.413,19.627c4.267,27.307,35.84,40.96,58.88,25.6l15.36-10.24
			L301.933,127l-11.947,16.213c-16.213,22.187-4.267,54.613,23.893,59.733l18.773,3.413v35.84l-19.627,3.413
			c-27.307,4.267-40.96,35.84-25.6,58.88l10.24,15.36l-25.6,23.893l-11.093-8.533c-23.04-17.067-55.467-3.413-59.733,24.747
			l-2.56,14.507h-35.84l-3.413-18.773c-4.267-23.893-29.013-35.84-50.347-29.013v141.653c0-18.773,15.36-34.133,34.133-34.133
			h341.333V7.533H144.067z"/>
	</g>
	<g>
		<polygon style="fill:#FFA800;" points="459.8,502.467 485.4,502.467 485.4,434.2 459.8,434.2 		"/>
		<polygon style="fill:#FFA800;" points="459.8,434.2 485.4,434.2 485.4,7.533 459.8,7.533 		"/>
	</g>
	<g>
		<path style="fill:#FFFFFF;" d="M109.933,434.2v42.667c0,14.507,11.093,25.6,25.6,25.6V434.2H109.933z"/>
		<polygon style="fill:#FFFFFF;" points="109.933,434.2 135.533,434.2 135.533,7.533 109.933,7.533 		"/>
	</g>
	<path style="fill:#63D3FD;" d="M178.2,272.067c-28.16,0-51.2-23.04-51.2-51.2s23.04-51.2,51.2-51.2s51.2,23.04,51.2,51.2
		S206.36,272.067,178.2,272.067L178.2,272.067z M313.027,202.947c-27.307-5.12-40.107-37.547-23.893-59.733L301.08,127l-24.747-25.6
		l-15.36,10.24c-23.04,15.36-54.613,1.707-58.88-25.6l-3.413-18.773h-35.84l-4.267,23.893c-5.12,26.453-35.84,39.253-58.88,23.893
		L80.067,101.4L55.32,127l11.947,16.213c16.213,22.187,4.267,54.613-23.893,59.733L24.6,206.36v35.84l19.627,3.413
		c27.307,4.267,40.96,35.84,25.6,58.88L58.733,319l25.6,24.747l16.213-11.947c22.187-16.213,54.613-4.267,59.733,23.893
		l3.413,18.773h35.84l1.707-13.653c4.267-28.16,36.693-41.813,59.733-24.747l11.093,8.533l24.747-24.747l-10.24-15.36
		c-15.36-23.04-1.707-54.613,25.6-58.88L331.8,242.2v-35.84L313.027,202.947z"/>
	<path style="fill:#FFFFFF;" d="M84.333,319l10.24-15.36c15.36-23.04,1.707-66.56-25.6-70.827L50.2,229.4v-13.653l18.773-3.413
		c27.307-5.12,40.107-47.787,23.893-69.973L80.92,126.147l14.507-14.507l-15.36-10.24L55.32,126.147l11.947,16.213
		c16.213,22.187,4.267,54.613-23.893,59.733L24.6,205.507v35.84l19.627,3.413c27.307,4.267,40.96,35.84,25.6,58.88L58.733,319
		l25.6,24.747l14.507-11.093L84.333,319z"/>
	<path d="M485.4,511H144.067c-23.893,0-42.667-18.773-42.667-42.667c0-23.893,18.773-42.667,42.667-42.667H485.4
		c5.12,0,8.533,3.413,8.533,8.533v68.267C493.933,507.587,490.52,511,485.4,511z M144.067,442.733c-14.507,0-25.6,11.093-25.6,25.6
		c0,14.507,11.093,25.6,25.6,25.6h332.8v-51.2H144.067z"/>
	<path d="M451.267,476.867H152.6c-5.12,0-8.533-3.413-8.533-8.533c0-5.12,3.413-8.533,8.533-8.533h298.667
		c5.12,0,8.533,3.413,8.533,8.533C459.8,473.453,456.387,476.867,451.267,476.867z"/>
	<path d="M198.68,383h-35.84c-4.267,0-7.68-2.56-8.533-6.827l-2.56-18.773c-3.413-15.36-17.067-23.893-29.013-23.893
		c-5.973,0-11.947,1.707-17.067,5.973l-16.213,11.947c-3.413,2.56-8.533,1.707-11.093-0.853l-24.747-24.747
		c-3.413-3.413-3.413-8.533-1.707-11.947l10.24-15.36c5.973-8.533,6.827-18.773,2.56-28.16c-4.267-9.387-12.8-16.213-22.187-17.067
		l-19.627-3.413c-4.267-0.853-6.827-4.267-6.827-8.533v-35.84c0-4.267,2.56-7.68,6.827-8.533l18.773-2.56
		c10.24-1.707,17.92-8.533,22.187-17.92s2.56-19.627-3.413-28.16L48.493,132.12c-2.56-3.413-1.707-7.68,0.853-11.093L74.093,96.28
		c2.56-3.413,7.68-3.413,11.093-1.707l20.48,13.653c5.12,3.413,10.24,5.12,16.213,5.12c11.947,0,26.453-8.533,29.013-23.893
		l4.267-23.893c0.853-4.267,4.267-6.827,8.533-6.827h35.84c4.267,0,7.68,3.413,8.533,6.827l3.413,19.627
		c2.56,16.213,16.213,24.747,29.013,24.747c5.973,0,11.093-1.707,16.213-5.12l15.36-10.24c3.413-2.56,7.68-1.707,11.093,0.853
		l24.747,24.747c2.56,2.56,3.413,7.68,0.853,11.093l-11.947,16.213c-5.973,8.533-7.68,18.773-3.413,28.16
		c4.267,9.387,11.947,16.213,22.187,17.92l18.773,3.413c4.267,0.853,6.827,4.267,6.827,8.533v35.84c0,4.267-3.413,7.68-6.827,8.533
		l-19.627,3.413c-10.24,1.707-18.773,7.68-22.187,17.067c-4.267,9.387-3.413,19.627,2.56,28.16l10.24,15.36
		c2.56,3.413,1.707,7.68-0.853,11.093l-24.747,24.747c-2.56,2.56-7.68,3.413-11.093,0.853l-11.093-8.533
		c-5.12-3.413-11.093-5.973-17.067-5.973c-12.8,0-26.453,8.533-29.013,24.747l-1.707,13.653C206.36,379.587,202.947,383,198.68,383z
		 M170.52,365.933h21.333l0.853-6.827c3.413-23.04,23.04-39.253,46.08-39.253c10.24,0,19.627,3.413,27.307,9.387l5.12,3.413
		l14.507-14.507l-6.827-9.387c-9.387-13.653-10.24-29.867-4.267-44.373c6.827-14.507,19.627-24.747,35.84-27.307l11.947-1.707
		V214.04l-11.947-2.56c-15.36-3.413-29.013-13.653-34.133-29.013c-5.973-15.36-3.413-31.573,5.973-44.373l7.68-10.24l-14.507-14.507
		l-9.387,6.827c-7.68,5.12-17.067,7.68-25.6,7.68c-23.04,0-42.667-16.213-46.08-39.253l-2.56-12.8H170.52l-3.413,17.067
		c-4.267,22.187-23.893,37.547-46.08,37.547c-9.387,0-17.92-2.56-25.6-7.68l-14.507-9.387l-14.507,14.507l7.68,10.24
		c9.387,12.8,11.947,29.867,5.973,44.373c-5.973,15.36-18.773,25.6-34.133,29.013l-12.8,1.707v21.333l11.947,1.707
		c16.213,2.56,29.013,12.8,35.84,27.307c6.827,14.507,5.12,31.573-4.267,44.373l-6.827,9.387L84.333,331.8l10.24-7.68
		c7.68-5.973,17.92-9.387,27.307-9.387c22.187,0,41.813,16.213,46.08,37.547L170.52,365.933z M178.2,280.6
		c-33.28,0-59.733-26.453-59.733-59.733s26.453-59.733,59.733-59.733s59.733,26.453,59.733,59.733S211.48,280.6,178.2,280.6z
		 M178.2,178.2c-23.893,0-42.667,18.773-42.667,42.667s18.773,42.667,42.667,42.667s42.667-18.773,42.667-42.667
		S202.093,178.2,178.2,178.2z"/>
	<path d="M121.027,130.413L121.027,130.413c-5.12,0-9.387-0.853-14.507-2.56c-2.56-0.853-5.12-4.267-5.12-7.68V41.667
		C101.4,17.773,120.173-1,144.067-1h51.2c5.12,0,8.533,3.413,8.533,8.533v59.733c0,5.12-3.413,8.533-8.533,8.533H170.52
		l-3.413,17.067C162.84,115.053,144.067,130.413,121.027,130.413z M118.467,113.347c12.8,1.707,29.013-6.827,31.573-23.893
		l4.267-23.893c0.853-4.267,4.267-6.827,8.533-6.827h23.893V16.067h-42.667c-14.507,0-25.6,11.093-25.6,25.6V113.347z"/>
	<path d="M109.933,476.867c-5.12,0-8.533-3.413-8.533-8.533v-140.8c0-3.413,2.56-6.827,5.973-7.68c5.12-1.707,10.24-2.56,15.36-2.56
		c22.187,0,41.813,16.213,46.08,37.547l2.56,11.947h23.893c5.12,0,8.533,3.413,8.533,8.533v59.733c0,5.12-3.413,8.533-8.533,8.533
		h-51.2c-14.507,0-25.6,11.093-25.6,25.6C118.467,473.453,115.053,476.867,109.933,476.867z M118.467,334.36v99.84
		c6.827-5.12,16.213-8.533,25.6-8.533h42.667V383h-23.04c-4.267,0-7.68-2.56-8.533-6.827l-3.413-18.773
		C148.333,340.333,132.12,331.8,118.467,334.36z"/>
	<path d="M109.933,476.867c-5.12,0-8.533-3.413-8.533-8.533v-140.8c0-3.413,2.56-6.827,5.973-7.68c5.12-1.707,10.24-2.56,15.36-2.56
		c22.187,0,41.813,16.213,46.08,37.547l2.56,11.947h21.333l0.853-6.827c3.413-23.04,23.04-39.253,46.08-39.253
		c10.24,0,19.627,3.413,27.307,9.387l5.12,3.413L286.573,319l-6.827-9.387c-9.387-13.653-10.24-29.867-4.267-44.373
		c6.827-14.507,19.627-24.747,35.84-27.307l11.947-1.707v-21.333l-11.947-2.56c-15.36-3.413-29.013-13.653-34.133-29.013
		c-5.973-15.36-3.413-31.573,5.973-44.373l7.68-10.24L276.333,114.2l-9.387,6.827c-7.68,5.12-17.067,7.68-25.6,7.68
		c-23.04,0-42.667-16.213-46.08-39.253L191.853,75.8H170.52l-3.413,17.067c-4.267,22.187-23.893,37.547-46.08,37.547
		c-5.12,0-9.387-0.853-14.507-2.56c-2.56-0.853-5.12-4.267-5.12-7.68V41.667C101.4,17.773,120.173-1,144.067-1H485.4
		c5.12,0,8.533,3.413,8.533,8.533V434.2c0,5.12-3.413,8.533-8.533,8.533H144.067c-14.507,0-25.6,11.093-25.6,25.6
		C118.467,473.453,115.053,476.867,109.933,476.867z M118.467,334.36v99.84c6.827-5.12,16.213-8.533,25.6-8.533h332.8v-409.6h-332.8
		c-14.507,0-25.6,11.093-25.6,25.6v71.68c12.8,1.707,29.013-6.827,31.573-23.893l4.267-23.893c0.853-4.267,4.267-6.827,8.533-6.827
		h35.84c4.267,0,7.68,3.413,8.533,6.827l3.413,19.627c2.56,16.213,16.213,24.747,29.013,24.747c5.973,0,11.093-1.707,16.213-5.12
		l15.36-10.24c3.413-2.56,7.68-1.707,11.093,0.853l24.747,24.747c2.56,2.56,3.413,7.68,0.853,11.093L295.96,147.48
		c-5.973,8.533-7.68,18.773-3.413,28.16s11.947,16.213,22.187,17.92l18.773,3.413c4.267,0.853,6.827,4.267,6.827,8.533v35.84
		c0,4.267-3.413,7.68-6.827,8.533l-19.627,3.413c-10.24,1.707-18.773,7.68-22.187,17.067c-4.267,9.387-3.413,19.627,2.56,28.16
		l10.24,15.36c2.56,3.413,1.707,7.68-0.853,11.093l-24.747,24.747c-2.56,2.56-7.68,3.413-11.093,0.853l-11.093-8.533
		c-5.12-3.413-11.093-5.973-17.067-5.973c-12.8,0-26.453,8.533-29.013,24.747l-1.707,13.653c-0.853,4.267-4.267,6.827-8.533,6.827
		h-35.84c-4.267,0-7.68-2.56-8.533-6.827l-4.267-17.067C148.333,340.333,132.12,331.8,118.467,334.36z"/>
</g>
</svg>