<?xml version="1.0" ?><!-- Uploaded to: SVG Repo, www.svgrepo.com, Generator: SVG Repo Mixer Tools -->
<svg width="25px" height="25px" viewBox="0 0 64 64" data-name="Layer 1" id="Layer_1" xmlns="http://www.w3.org/2000/svg"><defs><style>
      .cls-1 {
        fill: #f5dd90;
      }

      .cls-2 {
        fill: #f76c5e;
      }

      .cls-3 {
        fill: #6096ba;
      }

      .cls-4 {
        fill: #274c77;
      }
    </style></defs><path class="cls-4" d="M21.39,48.26l-9.9,4.24,4.24-9.9L46.85,11.49c1.56-1.56,4.09-1.56,5.66,0h0c1.56,1.56,1.56,4.09,0,5.66l-31.11,31.11Z"/><polyline class="cls-3" points="38.36 31.29 56.04 48.97 48.97 56.04 31.29 38.36"/><polyline class="cls-3" points="25.64 32.71 7.96 15.03 15.03 7.96 32.71 25.64"/><rect class="cls-1" height="2" transform="translate(-8.05 13.44) rotate(-45)" width="4" x="10.2" y="15.44"/><rect class="cls-1" height="2" transform="translate(-9.23 16.27) rotate(-45)" width="4" x="13.03" y="18.27"/><rect class="cls-1" height="2" transform="translate(-10.4 19.1) rotate(-45)" width="4" x="15.86" y="21.1"/><rect class="cls-1" height="2" transform="translate(-11.57 21.93) rotate(-45)" width="4" x="18.69" y="23.93"/><rect class="cls-1" height="2" transform="translate(-12.74 24.76) rotate(-45)" width="4" x="21.51" y="26.76"/><rect class="cls-1" height="2" transform="translate(-17.43 36.07) rotate(-45)" width="4" x="32.83" y="38.07"/><rect class="cls-1" height="2" transform="translate(-18.6 38.9) rotate(-45)" width="4" x="35.66" y="40.9"/><rect class="cls-1" height="2" transform="translate(-19.77 41.73) rotate(-45)" width="4" x="38.49" y="43.73"/><rect class="cls-1" height="2" transform="translate(-20.94 44.56) rotate(-45)" width="4" x="41.31" y="46.56"/><rect class="cls-1" height="2" transform="translate(-22.11 47.38) rotate(-45)" width="4" x="44.14" y="49.38"/><path class="cls-2" d="M45.44,12.91l5.66,5.66h0s1.42-1.41,1.42-1.41c.78-.78,1.17-1.8,1.17-2.83s-.39-2.04-1.17-2.83c-1.57-1.56-4.1-1.56-5.66,0l-1.41,1.42h0Z"/><polygon class="cls-2" points="21.39 48.26 15.74 42.61 15.74 42.61 11.49 52.51 21.39 48.26 21.39 48.26"/><rect class="cls-3" height="2" transform="translate(-11.84 32.59) rotate(-45)" width="42" x="12.41" y="29.59"/></svg>